<svg width="19" height="12" viewBox="0 0 19 12" fill="none" xmlns="http://www.w3.org/2000/svg">
<path fill-rule="evenodd" clip-rule="evenodd" d="M12.219 0.968967C12.2887 0.899122 12.3714 0.843708 12.4625 0.805898C12.5537 0.768088 12.6513 0.748627 12.75 0.748627C12.8486 0.748627 12.9463 0.768088 13.0374 0.805898C13.1286 0.843708 13.2113 0.899122 13.281 0.968967L17.781 5.46897C17.8508 5.53864 17.9063 5.6214 17.9441 5.71252C17.9819 5.80364 18.0013 5.90132 18.0013 5.99997C18.0013 6.09862 17.9819 6.1963 17.9441 6.28742C17.9063 6.37854 17.8508 6.4613 17.781 6.53097L13.281 11.031C13.1402 11.1718 12.9492 11.2509 12.75 11.2509C12.5508 11.2509 12.3598 11.1718 12.219 11.031C12.0782 10.8901 11.9991 10.6991 11.9991 10.5C11.9991 10.3008 12.0782 10.1098 12.219 9.96897L16.1895 5.99997L12.219 2.03097C12.1492 1.9613 12.0937 1.87854 12.0559 1.78742C12.0181 1.6963 11.9987 1.59862 11.9987 1.49997C11.9987 1.40132 12.0181 1.30363 12.0559 1.21252C12.0937 1.1214 12.1492 1.03864 12.219 0.968967Z" fill="white"/>
<path fill-rule="evenodd" clip-rule="evenodd" d="M0 6C0 5.80109 0.0790178 5.61032 0.21967 5.46967C0.360322 5.32902 0.551088 5.25 0.75 5.25H16.5C16.6989 5.25 16.8897 5.32902 17.0303 5.46967C17.171 5.61032 17.25 5.80109 17.25 6C17.25 6.19891 17.171 6.38968 17.0303 6.53033C16.8897 6.67098 16.6989 6.75 16.5 6.75H0.75C0.551088 6.75 0.360322 6.67098 0.21967 6.53033C0.0790178 6.38968 0 6.19891 0 6Z" fill="white"/>
</svg>
