<svg width="19" height="12" viewBox="0 0 19 12" fill="none" xmlns="http://www.w3.org/2000/svg">
<path fill-rule="evenodd" clip-rule="evenodd" d="M6.781 0.968967C6.71133 0.899122 6.62857 0.843708 6.53745 0.805898C6.44633 0.768088 6.34865 0.748627 6.25 0.748627C6.15135 0.748627 6.05367 0.768088 5.96255 0.805898C5.87143 0.843708 5.78867 0.899122 5.719 0.968967L1.219 5.46897C1.14916 5.53864 1.09374 5.6214 1.05593 5.71252C1.01812 5.80364 0.998662 5.90132 0.998662 5.99997C0.998662 6.09862 1.01812 6.1963 1.05593 6.28742C1.09374 6.37854 1.14916 6.4613 1.219 6.53097L5.719 11.031C5.85983 11.1718 6.05084 11.2509 6.25 11.2509C6.44917 11.2509 6.64017 11.1718 6.781 11.031C6.92183 10.8901 7.00095 10.6991 7.00095 10.5C7.00095 10.3008 6.92183 10.1098 6.781 9.96897L2.8105 5.99997L6.781 2.03097C6.85085 1.9613 6.90626 1.87854 6.94407 1.78742C6.98188 1.6963 7.00134 1.59862 7.00134 1.49997C7.00134 1.40132 6.98188 1.30363 6.94407 1.21252C6.90626 1.1214 6.85085 1.03864 6.781 0.968967Z" fill="#A8A8A8"/>
<path fill-rule="evenodd" clip-rule="evenodd" d="M19 6C19 5.80109 18.921 5.61032 18.7803 5.46967C18.6397 5.32902 18.4489 5.25 18.25 5.25H2.5C2.30109 5.25 2.11032 5.32902 1.96967 5.46967C1.82902 5.61032 1.75 5.80109 1.75 6C1.75 6.19891 1.82902 6.38968 1.96967 6.53033C2.11032 6.67098 2.30109 6.75 2.5 6.75H18.25C18.4489 6.75 18.6397 6.67098 18.7803 6.53033C18.921 6.38968 19 6.19891 19 6Z" fill="#A8A8A8"/>
</svg>
