<svg width="50" height="47" viewBox="0 0 50 47" fill="none" xmlns="http://www.w3.org/2000/svg">
<path d="M49.9997 15.3805C49.9932 15.4103 49.9839 15.4394 49.972 15.4675C49.972 15.4762 49.9647 15.4835 49.9618 15.4922C49.9512 15.5135 49.9395 15.5344 49.9267 15.5545C49.9032 15.5898 49.8758 15.6224 49.8449 15.6516L45.9569 19.3003L41.2831 23.6811L34.6433 29.9145L30.7553 33.5632C30.708 33.6067 30.6537 33.642 30.5946 33.6676L30.5741 33.6777C30.5353 33.6919 30.4952 33.7026 30.4544 33.7096C30.4226 33.7154 30.3903 33.7183 30.358 33.7183C30.2101 33.7186 30.0676 33.6632 29.9592 33.5632L28.2737 31.9817L25.9222 29.7754L23.7533 27.7459L19.7177 23.9536C19.6657 23.906 19.6241 23.8482 19.5957 23.7838C19.5673 23.7194 19.5527 23.6499 19.5527 23.5796C19.5527 23.5094 19.5673 23.4399 19.5957 23.3755C19.6241 23.3111 19.6657 23.2533 19.7177 23.2056L32.5941 11.1244C32.7022 11.0246 32.8444 10.9691 32.9921 10.9691C33.1398 10.9691 33.282 11.0246 33.3901 11.1244L37.0299 14.5383C37.0817 14.5861 37.1231 14.6439 37.1514 14.7083C37.1796 14.7726 37.1942 14.8421 37.1942 14.9123C37.1942 14.9825 37.1796 15.052 37.1514 15.1163C37.1231 15.1807 37.0817 15.2386 37.0299 15.2863L33.5596 18.5422L28.4476 23.3434C28.4233 23.3664 28.4013 23.3916 28.3818 23.4187C28.3764 23.4261 28.3716 23.4339 28.3672 23.4419C28.3541 23.4619 28.3424 23.4827 28.3322 23.5043C28.3277 23.5117 28.3238 23.5194 28.3205 23.5275C28.3084 23.556 28.2991 23.5856 28.2927 23.6159C28.2858 23.6473 28.2823 23.6794 28.2825 23.7115C28.2829 23.7818 28.2977 23.8512 28.3261 23.9155C28.3544 23.9798 28.3958 24.0377 28.4476 24.0856L29.819 25.3728C29.9271 25.4727 30.0694 25.5282 30.217 25.5282C30.3647 25.5282 30.5069 25.4727 30.615 25.3728L41.1312 15.5154C41.1829 15.4678 41.2242 15.4102 41.2526 15.3461C41.281 15.282 41.2958 15.2128 41.2962 15.1428C41.2958 15.0744 41.2814 15.0069 41.2538 14.9442C41.2255 14.878 41.1837 14.8183 41.1312 14.7688L25.7952 0.374006C25.7434 0.32614 25.702 0.268262 25.6737 0.203942C25.6453 0.139622 25.6305 0.070218 25.6301 0V3.98502L26.2655 4.58082L30.2879 8.37015C30.3399 8.4178 30.3815 8.47563 30.4099 8.54C30.4383 8.60437 30.4529 8.67388 30.4529 8.74415C30.4529 8.81443 30.4383 8.88394 30.4099 8.94831C30.3815 9.01268 30.3399 9.0705 30.2879 9.11815L17.4159 21.1979C17.3917 21.2193 17.3658 21.2387 17.3384 21.2559C17.2294 21.3274 17.0993 21.3605 16.9691 21.35C16.8388 21.3395 16.7158 21.286 16.6198 21.1979L12.9801 17.7826C12.9282 17.7348 12.8869 17.6769 12.8586 17.6126C12.8303 17.5482 12.8157 17.4788 12.8157 17.4086C12.8157 17.3384 12.8303 17.2689 12.8586 17.2046C12.8869 17.1402 12.9282 17.0823 12.9801 17.0346L21.5668 8.97754C21.6576 8.8942 21.715 8.78099 21.7281 8.65891C21.7413 8.53682 21.7094 8.41414 21.6384 8.31361C21.6178 8.28298 21.5938 8.25478 21.5668 8.22954L20.1939 6.94371C20.0867 6.84285 19.9443 6.78724 19.7966 6.78861C19.7643 6.78862 19.732 6.79153 19.7002 6.79731C19.6591 6.80299 19.6189 6.81369 19.5804 6.82919L19.5556 6.84079C19.5276 6.85384 19.5003 6.86836 19.4738 6.88428C19.4468 6.90191 19.4214 6.92179 19.3979 6.94371L8.88174 16.8012C8.85709 16.8238 8.83504 16.8491 8.81601 16.8766L8.79994 16.8998C8.78685 16.9197 8.77514 16.9405 8.76489 16.9621L8.75467 16.9853C8.74491 17.0083 8.7371 17.032 8.7313 17.0563C8.73064 17.0621 8.73064 17.0679 8.7313 17.0737C8.71479 17.1585 8.72048 17.2461 8.74785 17.3281C8.77521 17.4101 8.82332 17.4837 8.88758 17.5419L24.2236 31.9396C24.2756 31.9873 24.3172 32.0451 24.3456 32.1095C24.374 32.1739 24.3886 32.2434 24.3886 32.3136C24.3886 32.3839 24.374 32.4534 24.3456 32.5178C24.3172 32.5822 24.2756 32.64 24.2236 32.6876L20.8351 35.8667L20.7343 35.9609C20.711 35.9832 20.6856 36.0031 20.6583 36.0203C20.6319 36.0363 20.6046 36.0508 20.5765 36.0638C20.5301 36.0846 20.4809 36.0987 20.4305 36.1059C20.3987 36.1116 20.3664 36.1146 20.3341 36.1146C20.186 36.1157 20.0432 36.0601 19.9353 35.9594L4.20207 21.2023L0.165046 17.4129C0.137974 17.3879 0.113508 17.3602 0.0920172 17.3303C0.0325488 17.2451 0.000468411 17.144 4.25772e-07 17.0404V27.9126C-9.09643e-05 27.9829 0.0145309 28.0524 0.0429422 28.1168C0.0713534 28.1812 0.112935 28.239 0.165046 28.2866L4.20207 32.0759L19.9412 46.8433C20.049 46.944 20.1919 46.9995 20.3399 46.9984C20.3691 47.0005 20.3984 47.0005 20.4276 46.9984H20.4363C20.4774 46.9927 20.5176 46.982 20.5561 46.9665L20.5765 46.9563C20.6046 46.9433 20.6319 46.9288 20.6583 46.9128H20.67C20.6931 46.8976 20.7146 46.8801 20.7343 46.8607L24.2236 43.5874C24.2437 43.5677 24.2627 43.5469 24.2805 43.5251C24.2829 43.5204 24.2859 43.516 24.2893 43.512L24.3039 43.4888C24.317 43.4689 24.3287 43.448 24.339 43.4265L24.3506 43.4018C24.3621 43.3736 24.3714 43.3445 24.3784 43.3149C24.3835 43.2925 24.3864 43.2697 24.3872 43.2467C24.3879 43.2376 24.3879 43.2284 24.3872 43.2192V39.2342L25.9208 40.6736L29.9578 44.4615C30.0661 44.5615 30.2086 44.6169 30.3565 44.6166C30.3859 44.6164 30.4152 44.614 30.4442 44.6094H30.4529C30.4937 44.6023 30.5338 44.5917 30.5727 44.5775L30.5931 44.5659C30.6217 44.554 30.6491 44.5394 30.6749 44.5224H30.6866C30.709 44.5063 30.7305 44.4888 30.7509 44.4702L34.6389 40.8215L45.9467 30.2102L49.8347 26.5615C49.8559 26.5429 49.8751 26.522 49.8917 26.4992C49.8951 26.4952 49.898 26.4908 49.9004 26.4861L49.9165 26.4644C49.9293 26.4442 49.941 26.4234 49.9515 26.4021C49.9515 26.3934 49.9515 26.3861 49.9618 26.3774C49.9737 26.3493 49.9829 26.3202 49.9895 26.2904C49.9939 26.2679 49.9968 26.2452 49.9983 26.2223V15.3211C49.9999 15.3409 50.0004 15.3607 49.9997 15.3805Z" fill="#8E7B5B" fill-opacity="0.4"/>
</svg>
