<svg width="28" height="28" viewBox="0 0 28 28" fill="none" xmlns="http://www.w3.org/2000/svg">
<path d="M28 16.0002V14.0002H22V24.0002H24V20.0002H27V18.0002H24V16.0002H28ZM17 24.0002H13V14.0002H17C17.7954 14.001 18.558 14.3174 19.1204 14.8798C19.6829 15.4422 19.9992 16.2048 20 17.0002V21.0002C19.9992 21.7957 19.6829 22.5583 19.1204 23.1207C18.558 23.6831 17.7954 23.9994 17 24.0002ZM15 22.0002H17C17.2651 22 17.5193 21.8945 17.7068 21.7071C17.8943 21.5196 17.9997 21.2654 18 21.0002V17.0002C17.9997 16.7351 17.8943 16.4809 17.7068 16.2934C17.5193 16.106 17.2651 16.0005 17 16.0002H15V22.0002ZM9 14.0002H4V24.0002H6V21.0002H9C9.53019 20.9995 10.0384 20.7885 10.4133 20.4136C10.7882 20.0387 10.9992 19.5304 11 19.0002V16.0002C10.9995 15.47 10.7886 14.9616 10.4136 14.5866C10.0387 14.2117 9.53027 14.0008 9 14.0002ZM6 19.0002V16.0002H9L9.001 19.0002H6Z" fill="black"/>
<path d="M20 12.0003V8.00034C20.0035 7.86892 19.9785 7.73829 19.9268 7.61745C19.875 7.49661 19.7976 7.38842 19.7 7.30034L12.7 0.30034C12.612 0.202685 12.5038 0.12529 12.3829 0.0734971C12.2621 0.0217038 12.1314 -0.00325583 12 0.00034004H2C1.47005 0.00192277 0.962265 0.213145 0.587535 0.587875C0.212805 0.962605 0.00158273 1.47039 0 2.00034V26.0003C0 26.5308 0.210714 27.0395 0.585786 27.4146C0.960859 27.7896 1.46957 28.0003 2 28.0003H18V26.0003H2V2.00034H10V8.00034C10.0016 8.53029 10.2128 9.03808 10.5875 9.41281C10.9623 9.78754 11.4701 9.99876 12 10.0003H18V12.0003H20ZM12 8.00034V2.40034L17.6 8.00034H12Z" fill="black"/>
</svg>
