<svg width="33" height="58" viewBox="0 0 33 58" fill="none" xmlns="http://www.w3.org/2000/svg">
<path d="M28.2434 53.8606H1V56.7289H28.2434V53.8606Z" stroke="#C31E39" stroke-miterlimit="10"/>
<path d="M22.8826 44.8296H6.36019L3.81201 49.2113V51.4663H25.4316V49.2113L22.8826 44.8296Z" stroke="#C31E39" stroke-miterlimit="10"/>
<path d="M7.59428 12.2404L6.16367 15.5387C6.16367 15.5387 3.03011 15.0507 3.66011 14.3779C4.29011 13.7051 6.36793 11.0966 6.36793 11.0966L8.68367 7.85483C8.68367 7.85483 8.85115 7.68392 8.50758 7.55168C6.02985 6.59816 7.93002 3.95568 9.71515 5.71965L12.7963 1L13.8262 1.37043C13.8262 1.37043 9.82472 9.46413 9.71358 10.171C9.71358 10.171 9.56019 10.7432 9.51793 10.9868C9.47567 11.2312 9.79889 12.7369 9.79889 12.7369L10.1565 14.63L11.3485 17.2385C11.3485 17.2385 12.8471 17.5331 12.6085 17.4148C12.3698 17.2965 11.8814 13.8543 13.4419 13.2496C17.1398 11.8158 16.1873 16.9856 16.6193 16.5092L18.6572 16.6886L30.3111 13.0818C30.3111 13.0818 31.7589 12.7454 31.4858 13.4685L30.2938 14.5117L22.0514 18.8362L20.6889 19.5933L28.0282 35.0746L25.2695 36.421L22.4881 37.5763L20.2858 45.0251" stroke="#C31E39" stroke-miterlimit="10"/>
<path d="M19.6731 23.7786L24.4431 34.7042" stroke="#C31E39" stroke-miterlimit="10"/>
<path d="M19.4806 20.1432C19.3781 20.1656 18.3795 20.5917 18.3795 20.5917C18.3795 20.5917 16.6538 24.7198 17.3347 25.1242C17.3347 25.1242 19.083 27.7041 19.1738 28.2207C19.1738 28.2207 18.7004 29.3234 18.5642 29.6823L19.994 38.2809" stroke="#C31E39" stroke-miterlimit="10"/>
<path d="M16.9848 44.3524L14.7638 33.4592L13.7933 32.2474L12.5443 44.6439H8.17108C8.17108 44.6439 10.1605 30.1053 10.1605 29.9931C10.1605 29.881 10.9775 24.743 10.9775 24.743L7.86664 17.2045L7.43542 16.1721L7.68508 12.7169L7.86664 12.3464" stroke="#C31E39" stroke-miterlimit="10"/>
<path d="M12.1132 28.5678C12.1132 28.5678 13.838 28.0582 13.9515 28.0134C14.065 27.9685 17.5484 28.0064 17.5484 28.0064" stroke="#C31E39" stroke-miterlimit="10"/>
<path d="M12.3871 24.2365L13.1032 24.0331L15.516 24.1352" stroke="#C31E39" stroke-miterlimit="10"/>
</svg>
