<svg width="46" height="58" viewBox="0 0 46 58" fill="none" xmlns="http://www.w3.org/2000/svg">
<path d="M44.2405 54.5386C44.2405 53.7425 43.596 53.0973 42.8006 53.0973H3.15919C2.36386 53.0973 1.71936 53.7425 1.71936 54.5386L1.74249 55.9799H44.2405V54.5386Z" stroke="#676570" stroke-miterlimit="10"/>
<path d="M37.4334 0.981323L8.10907 8.75056L10.1572 50.5196H35.3863L37.4334 0.981323Z" stroke="#676570" stroke-miterlimit="10"/>
<path d="M31.5837 50.5197H37.3822L40.7354 24.2559H36.4662" stroke="#676570" stroke-miterlimit="10"/>
<path d="M13.8644 50.5197H8.06584L4.71362 24.2559H8.98182" stroke="#676570" stroke-miterlimit="10"/>
<path d="M17.6771 47.0402H20.3285" stroke="#676570" stroke-miterlimit="10"/>
<path d="M17.6771 42.0237H20.3285" stroke="#676570" stroke-miterlimit="10"/>
<path d="M17.6771 37.0062H20.3285" stroke="#676570" stroke-miterlimit="10"/>
<path d="M17.6771 31.9897H20.3285" stroke="#676570" stroke-miterlimit="10"/>
<path d="M17.6771 26.9734H20.3285" stroke="#676570" stroke-miterlimit="10"/>
<path d="M17.6771 21.9569H20.3285" stroke="#676570" stroke-miterlimit="10"/>
<path d="M17.6771 16.9406H20.3285" stroke="#676570" stroke-miterlimit="10"/>
<path d="M17.6771 11.9241H20.3285" stroke="#676570" stroke-miterlimit="10"/>
<path d="M22.0418 47.0402H28.2827" stroke="#676570" stroke-miterlimit="10"/>
<path d="M22.0418 42.0237H28.2827" stroke="#676570" stroke-miterlimit="10"/>
<path d="M22.0418 37.0062H28.2827" stroke="#676570" stroke-miterlimit="10"/>
<path d="M22.0418 31.9897H28.2827" stroke="#676570" stroke-miterlimit="10"/>
<path d="M22.0418 26.9734H28.2827" stroke="#676570" stroke-miterlimit="10"/>
<path d="M22.0418 21.9569H28.2827" stroke="#676570" stroke-miterlimit="10"/>
<path d="M22.0418 16.9406H28.2827" stroke="#676570" stroke-miterlimit="10"/>
<path d="M22.0418 11.9241H28.2827" stroke="#676570" stroke-miterlimit="10"/>
</svg>
