<svg width="40" height="66" viewBox="0 0 40 66" fill="none" xmlns="http://www.w3.org/2000/svg">
<g filter="url(#filter0_d_16_139)">
<path d="M32.1377 54.5844H4.89426V57.4526H32.1377V54.5844Z" stroke="#676570" stroke-miterlimit="10"/>
<path d="M26.7769 45.5533H10.2544L7.70627 49.9351V52.1901H29.3258V49.9351L26.7769 45.5533Z" stroke="#676570" stroke-miterlimit="10"/>
<path d="M11.4886 12.9642L10.058 16.2624C10.058 16.2624 6.92442 15.7744 7.55442 15.1016C8.18442 14.4288 10.2623 11.8204 10.2623 11.8204L12.578 8.57858C12.578 8.57858 12.7455 8.40767 12.4019 8.27543C9.92416 7.32191 11.8243 4.67943 13.6095 6.44341L16.6906 1.72375L17.7205 2.09418C17.7205 2.09418 13.719 10.1879 13.6079 10.8947C13.6079 10.8947 13.4545 11.467 13.4122 11.7106C13.37 11.955 13.6932 13.4606 13.6932 13.4606L14.0509 15.3538L15.2428 17.9622C15.2428 17.9622 16.7415 18.2568 16.5028 18.1385C16.2641 18.0202 15.7757 14.5781 17.3363 13.9734C21.0341 12.5396 20.0816 17.7093 20.5136 17.233L22.5516 17.4124L34.2054 13.8055C34.2054 13.8055 35.6532 13.4691 35.3801 14.1922L34.1882 15.2354L25.9457 19.5599L24.5832 20.317L31.9225 35.7984L29.1638 37.1447L26.3824 38.3001L24.1802 45.7488" stroke="#676570" stroke-miterlimit="10"/>
<path d="M23.5674 24.5023L28.3374 35.428" stroke="#676570" stroke-miterlimit="10"/>
<path d="M23.3749 20.8669C23.2724 20.8894 22.2738 21.3155 22.2738 21.3155C22.2738 21.3155 20.5481 25.4435 21.229 25.848C21.229 25.848 22.9773 28.4278 23.0681 28.9444C23.0681 28.9444 22.5946 30.0472 22.4585 30.406L23.8883 39.0047" stroke="#676570" stroke-miterlimit="10"/>
<path d="M20.8791 45.0761L18.6581 34.183L17.6876 32.9711L16.4386 45.3677H12.0654C12.0654 45.3677 14.0547 30.829 14.0547 30.7169C14.0547 30.6048 14.8718 25.4667 14.8718 25.4667L11.7609 17.9283L11.3297 16.8959L11.5794 13.4406L11.7609 13.0702" stroke="#676570" stroke-miterlimit="10"/>
<path d="M16.0074 29.2916C16.0074 29.2916 17.7323 28.782 17.8458 28.7371C17.9593 28.6923 21.4426 28.7302 21.4426 28.7302" stroke="#676570" stroke-miterlimit="10"/>
<path d="M16.2813 24.9602L16.9974 24.7568L19.4102 24.8589" stroke="#676570" stroke-miterlimit="10"/>
</g>
<defs>
<filter id="filter0_d_16_139" x="-3" y="0" width="44" height="66" filterUnits="userSpaceOnUse" color-interpolation-filters="sRGB">
<feFlood flood-opacity="0" result="BackgroundImageFix"/>
<feBlend mode="normal" in="SourceGraphic" in2="effect1_dropShadow_16_139" result="shape"/>
</filter>
</defs>
</svg>
