<svg width="52" height="58" viewBox="0 0 52 58" fill="none" xmlns="http://www.w3.org/2000/svg">
<path d="M49.3468 48.9851L33.8318 40.5951H19.0413L3.52722 48.9851H18.2454L26.4365 56.1722L34.6286 48.9851H49.3468Z" stroke="#676570" stroke-miterlimit="10"/>
<path d="M33.3757 35.3215H19.2571V37.9388H33.3757V35.3215Z" stroke="#676570" stroke-miterlimit="10"/>
<path d="M26.4365 53.2479V42.5447" stroke="#676570" stroke-miterlimit="10"/>
<path d="M34.234 47.6205L30.4832 41.7727" stroke="#676570" stroke-miterlimit="10"/>
<path d="M18.8088 47.6205L22.5607 41.7727" stroke="#676570" stroke-miterlimit="10"/>
<path d="M18.6234 9.21466C18.6585 9.99644 18.6468 10.7597 18.7396 11.5103C18.8314 12.255 19.0003 12.9949 19.1868 13.725C19.3763 14.4659 19.7258 15.1492 20.1614 15.815C20.1819 15.7769 20.1975 15.7613 20.1965 15.7467C20.0686 13.686 20.6243 11.7754 21.635 9.98475C22.9113 7.72421 24.6085 5.80875 26.8652 4.39238C29.078 3.0033 31.5203 2.40186 34.1609 2.45157C35.9303 2.48471 37.6256 2.87268 39.3189 3.29964C39.3423 3.30549 39.3648 3.31816 39.3843 3.3591C39.3169 3.363 39.2495 3.36885 39.1831 3.36982C38.69 3.36982 38.1959 3.39224 37.7037 3.36397C36.7633 3.31036 35.9528 3.62619 35.2009 4.12333C34.1677 4.80471 33.4285 5.72881 32.864 6.78646C32.0848 8.2467 31.6014 9.78296 31.6443 11.443C31.6893 13.2045 32.2478 14.807 33.2693 16.2663C33.3093 16.3228 33.3523 16.3774 33.3962 16.432C33.4089 16.4476 33.4285 16.4574 33.4617 16.4827C33.5505 16.3394 33.6355 16.199 33.7243 16.0606C34.238 15.2691 34.822 14.536 35.6149 13.9804C36.2252 13.5525 36.8863 13.2727 37.6998 13.3926C37.6646 13.4969 37.6314 13.5973 37.5963 13.6967C37.1666 14.9133 36.8932 16.1532 36.9703 17.4497C37.0279 18.4332 37.3219 19.3603 37.6383 20.2873C37.9263 21.1324 38.2437 21.9766 38.4292 22.8442C38.8374 24.7528 38.4273 26.5406 37.3443 28.1763C36.11 30.041 34.3317 31.28 32.2498 32.1515C30.6864 32.8056 29.0448 33.1321 27.3486 33.2276C27.0849 33.2423 26.8213 33.2637 26.5576 33.2812C26.5469 33.2822 26.5352 33.2696 26.501 33.2491C26.8789 33.0132 27.2422 32.7753 27.6162 32.556C28.8642 31.8239 29.5097 30.7195 29.7304 29.3694C29.9803 27.839 29.6679 26.3661 29.1523 24.9244C28.5117 23.1356 27.5586 21.498 26.4824 19.9227C26.4639 19.8964 26.4404 19.873 26.3916 19.8175C26.3613 20.3058 26.334 20.7542 26.3047 21.2026C26.2295 22.3529 26.1162 23.4992 25.8243 24.6212C25.7491 24.9127 25.6348 25.1954 25.5225 25.4761C25.0548 26.641 24.0069 26.4831 23.2628 26.0122C23.1115 25.9167 22.9923 25.7734 22.8283 25.6243C22.675 26.0707 22.5138 26.4987 22.382 26.9354C22.0783 27.9414 21.8723 28.961 21.9611 30.0167C22.0334 30.8686 22.342 31.6105 23.0158 32.1983C23.3322 32.4741 23.6212 32.7783 23.9474 33.0931C23.8839 33.0843 23.8487 33.0824 23.8155 33.0736C22.3966 32.6983 20.9846 32.3074 19.6946 31.5968C16.5892 29.8861 14.5991 27.3516 13.7017 24.0373C13.0386 21.5877 13.1343 19.1283 13.7974 16.6932C14.5864 13.7952 16.0854 11.2988 18.471 9.32676C18.514 9.28875 18.5648 9.25658 18.6234 9.21466ZM29.328 32.1856C29.4403 32.1671 29.496 32.1602 29.5507 32.1485C30.9881 31.8512 32.3377 31.3434 33.5857 30.5947C35.0231 29.732 36.2164 28.6403 36.9908 27.1713C37.6578 25.905 37.9 24.5696 37.6656 23.161C37.5162 22.2622 37.1939 21.4112 36.8668 20.5641C36.2096 18.8602 35.9284 17.1212 36.2965 15.3159C36.3571 15.0186 36.4283 14.7232 36.5055 14.3771C35.0856 15.233 34.3542 16.5422 33.6589 17.8708C33.6267 17.862 33.6101 17.862 33.6013 17.8542C33.5583 17.8182 33.5173 17.7801 33.4773 17.7411C31.7215 16.0226 30.8573 13.9453 30.8094 11.5532C30.7782 9.95843 31.2283 8.4631 31.9334 7.03308C32.5515 5.7795 33.3806 4.68579 34.5856 3.88841C34.8229 3.73147 35.0768 3.59597 35.3493 3.43611C35.2302 3.41759 35.1403 3.39809 35.0505 3.39029C34.2019 3.31523 33.3552 3.29964 32.5047 3.37957C30.5311 3.56575 28.7177 4.17695 27.081 5.24922C25.1309 6.52717 23.6417 8.2116 22.4963 10.1778C21.6086 11.7014 21.0793 13.3322 21.051 15.0936C21.0383 15.9144 21.1203 16.7225 21.4406 17.4955C21.5373 17.7285 21.6115 17.9702 21.7111 18.249C20.925 17.7616 20.2083 17.2772 19.6907 16.5597C18.6409 15.1034 18.1722 13.4618 17.9769 11.7286C17.9505 11.4927 17.932 11.2568 17.9056 10.9732C17.8216 11.0629 17.7689 11.1155 17.7201 11.1711C17.0726 11.8983 16.4984 12.6752 16.0258 13.5174C14.1567 16.8453 13.5483 20.3565 14.5659 24.0334C15.5151 27.4627 17.7357 29.9172 21.1047 31.3989C21.2111 31.4457 21.3225 31.4818 21.466 31.5354C21.3947 31.3219 21.3274 31.1504 21.2795 30.9739C20.9826 29.8929 21.0725 28.8099 21.2961 27.7318C21.6486 26.0269 22.3957 24.4653 23.2228 22.9348C23.2267 22.928 23.2462 22.93 23.2726 22.9251C23.2755 22.9943 23.2814 23.0606 23.2814 23.1269C23.2853 23.6143 23.2687 24.1017 23.298 24.5871C23.3224 24.9868 23.5128 25.3299 23.9259 25.4703C24.5313 25.6769 24.5763 25.5775 24.7862 25.133C24.8067 25.0891 24.8223 25.0433 24.8389 24.9985C25.1924 24.0051 25.3565 22.9719 25.4258 21.9337C25.5206 20.5115 25.543 19.0844 25.5957 17.6583C25.5987 17.5735 25.5957 17.4887 25.5957 17.4039C25.6875 17.4468 25.7334 17.4955 25.7715 17.5501C26.4131 18.4576 27.082 19.3486 27.6894 20.2776C28.8095 21.9912 29.7391 23.7936 30.2684 25.7656C30.5936 26.9783 30.742 28.2045 30.5477 29.4533C30.3944 30.4446 30.0184 31.3521 29.328 32.1856Z" fill="#676570"/>
</svg>
