<svg width="35" height="35" viewBox="0 0 35 35" fill="none" xmlns="http://www.w3.org/2000/svg">
<path fill-rule="evenodd" clip-rule="evenodd" d="M4.02772 5.22645C4.03113 5.22645 3.94577 5.31522 3.83821 5.42107C3.42505 5.82228 2.56972 6.65713 2.56109 8.40366C2.54752 10.8468 4.15406 15.3829 11.8897 23.1168C19.5894 30.8132 24.1188 32.4385 26.567 32.4385H26.6028C28.3494 32.43 29.1825 31.5729 29.5854 31.1615C29.7084 31.0351 29.8074 30.9429 29.8774 30.8849C31.5778 29.1742 32.4485 27.9006 32.44 27.0845C32.428 26.2514 31.3917 25.2663 29.9593 23.9039C29.5035 23.4703 29.0084 22.999 28.486 22.4766C27.1321 21.1262 26.4611 21.3567 24.9861 21.8757C22.9459 22.591 20.146 23.5641 15.7959 19.2123C11.4389 14.8588 12.4138 12.0623 13.1274 10.0221C13.643 8.54707 13.8786 7.87441 12.5231 6.51884C11.9921 5.98959 11.5158 5.48766 11.077 5.0267C9.72315 3.60284 8.74659 2.57336 7.91857 2.56141H7.90491C7.08713 2.56141 5.81693 3.43553 4.01918 5.23327C4.0243 5.22815 4.02601 5.22645 4.02772 5.22645ZM26.5687 34.9994C22.3142 34.9994 16.7673 31.6122 10.08 24.9283C3.36701 18.217 -0.0253227 12.653 0.000142305 8.39C0.0156516 5.57302 1.49243 4.13038 2.04729 3.58918C2.07632 3.55333 2.17534 3.45602 2.20948 3.42187C4.6577 0.971949 6.30862 -0.0182635 7.95101 0.000254616C9.85802 0.0261253 11.2153 1.4534 12.9328 3.26139C13.3579 3.70869 13.8189 4.19526 14.3328 4.70744C16.8254 7.20004 16.1151 9.23339 15.5449 10.8655C14.9235 12.6462 14.3857 14.1827 17.6056 17.4026C20.8289 20.6225 22.3654 20.0847 24.1393 19.4582C25.7731 18.888 27.8013 18.1743 30.2974 20.6669C30.8027 21.1723 31.2825 21.6281 31.7246 22.0498C33.5412 23.7759 34.9753 25.14 34.9995 27.0521C35.0197 28.6825 34.0294 30.3437 31.5846 32.7902L30.5022 32.0561L31.4173 32.9507C30.8761 33.5055 29.4352 34.984 26.6165 34.9994H26.5687Z" fill="white"/>
</svg>
