<svg width="312" height="66" viewBox="0 0 312 66" fill="none" xmlns="http://www.w3.org/2000/svg">
<path d="M86.1166 54.3674L56.0428 49.0898L43.2258 53.1109L30.4089 49.0898L0.335084 54.3674L0 57.6345H43.2258H86.4517L86.1166 54.3674Z" fill="#8E7B5B"/>
<path d="M85.5302 47.1631L85.1114 43.0583H72.5457L85.5302 47.1631Z" fill="#8E7B5B"/>
<path d="M43.2259 52.6082L55.959 45.6552L86.0328 53.0271L85.614 48.3359L56.0428 38.4509L43.2259 48.7548L30.4089 38.4509L0.837739 48.3359L0.418884 53.0271L30.4927 45.6552L43.2259 52.6082Z" fill="#8E7B5B"/>
<path d="M1.34033 43.0583L1.00525 47.1631L13.906 43.0583H1.34033Z" fill="#8E7B5B"/>
<path d="M53.5297 14.0735C50.7653 7.87447 46.6605 3.1833 42.3882 0.753939C42.2206 0.670168 42.1369 0.586397 41.9693 0.502626C41.6342 0.335084 41.2991 0.167542 40.9641 0C41.1316 0.167542 41.2991 0.335084 41.3829 0.586397C41.5505 0.753939 41.6342 0.921481 41.8018 1.17279C43.1421 3.1833 44.0636 5.86397 44.3149 8.9635C44.9013 15.6652 42.0531 21.6129 37.9483 21.6967C35.6027 21.6967 33.4247 19.9375 31.833 17.0893C30.6602 20.859 29.8225 25.3826 31.3304 29.9062C33.2571 35.6864 40.7127 39.2886 43.2259 39.2886C46.0741 39.2886 57.9696 33.7597 55.5402 19.8537C55.2051 17.8432 54.3674 15.9165 53.5297 14.0735Z" fill="#C31E39"/>
<path d="M52.4406 21.9479C51.6867 17.3405 49.7599 14.3247 47.6657 12.3142C47.6657 12.4818 47.7494 12.7331 47.7494 12.9006C49.2573 22.1992 42.4719 25.55 39.121 25.55C37.6969 25.55 35.8539 25.4663 34.5136 24.7123C34.4298 25.9689 34.5974 27.3092 35.1 28.6496C36.4403 32.503 41.2153 35.2675 43.3933 35.2675C45.8227 35.3512 53.9485 31.2465 52.4406 21.9479Z" fill="white"/>
<path d="M115.376 36L109.8 28.6491H109.108V36H104.172V17.8182H109.108V24.6719H109.747L114.967 17.8182H121.182L114.257 26.554L121.572 36H115.376ZM122.897 36V17.8182H127.834V24.9205H134.368V17.8182H139.304V36H134.368V28.8977H127.834V36H122.897ZM141.647 17.8182H146.584V27.3352H146.726L153.189 17.8182H157.379V36H152.443V26.4474H152.336L145.767 36H141.647V17.8182ZM172.498 17.8182V21.7955H164.65V36H159.714V17.8182H172.498ZM176.766 36H171.439L177.441 17.8182H184.188L190.189 36H184.863L180.885 22.8253H180.743L176.766 36ZM175.772 28.8267H185.786V32.5199H175.772V28.8267ZM213.611 17.8182V36H208.746V21.7244H202.603V36H197.738V17.8182H213.611ZM221.493 36H216.166L222.167 17.8182H228.914L234.916 36H229.589L225.612 22.8253H225.47L221.493 36ZM220.498 28.8267H230.512V32.5199H220.498V28.8267ZM236.667 17.8182H242.81L247.036 28.1165H247.249L251.475 17.8182H257.619V36H252.789V25.4886H252.647L248.599 35.858H245.687L241.639 25.4176H241.497V36H236.667V17.8182ZM274.979 36H270.043V21.7599H268.303C267.729 21.7599 267.235 21.8398 266.821 21.9996C266.406 22.1535 266.087 22.3962 265.862 22.7276C265.643 23.0531 265.533 23.4763 265.533 23.9972C265.533 24.5121 265.643 24.9293 265.862 25.2489C266.087 25.5685 266.406 25.8023 266.821 25.9503C267.235 26.0923 267.729 26.1634 268.303 26.1634H271.996V29.9986H267.309C265.93 29.9986 264.719 29.7707 263.678 29.315C262.636 28.8593 261.825 28.1845 261.245 27.2908C260.671 26.3971 260.384 25.2992 260.384 23.9972C260.384 22.7069 260.665 21.6001 261.228 20.6768C261.79 19.7536 262.577 19.0463 263.589 18.555C264.607 18.0638 265.788 17.8182 267.131 17.8182H274.979V36ZM264.326 27.6548H269.582L265.143 36H259.78L264.326 27.6548ZM276.819 21.7955V17.8182H292.622V21.7955H287.153V36H282.288V21.7955H276.819ZM294.479 17.8182H299.416V27.3352H299.558L306.021 17.8182H310.211V36H305.275V26.4474H305.168L298.599 36H294.479V17.8182Z" fill="#8E7B5B"/>
<path d="M104.497 57V44.6364H108.675C109.645 44.6364 110.438 44.8114 111.053 45.1616C111.673 45.5077 112.132 45.9766 112.43 46.5682C112.728 47.1598 112.876 47.8198 112.876 48.5483C112.876 49.2768 112.728 49.9388 112.43 50.5344C112.136 51.1301 111.681 51.605 111.065 51.9592C110.45 52.3093 109.661 52.4844 108.699 52.4844H105.705V51.1562H108.651C109.315 51.1562 109.848 51.0415 110.25 50.8121C110.653 50.5827 110.945 50.2728 111.126 49.8825C111.311 49.488 111.403 49.0433 111.403 48.5483C111.403 48.0533 111.311 47.6106 111.126 47.2202C110.945 46.8298 110.651 46.5239 110.244 46.3026C109.838 46.0772 109.299 45.9645 108.626 45.9645H105.994V57H104.497ZM125.72 50.8182C125.72 52.1222 125.485 53.2491 125.014 54.1989C124.543 55.1487 123.897 55.8812 123.076 56.3963C122.255 56.9115 121.317 57.169 120.263 57.169C119.208 57.169 118.27 56.9115 117.449 56.3963C116.628 55.8812 115.982 55.1487 115.512 54.1989C115.041 53.2491 114.805 52.1222 114.805 50.8182C114.805 49.5142 115.041 48.3873 115.512 47.4375C115.982 46.4877 116.628 45.7552 117.449 45.2401C118.27 44.7249 119.208 44.4673 120.263 44.4673C121.317 44.4673 122.255 44.7249 123.076 45.2401C123.897 45.7552 124.543 46.4877 125.014 47.4375C125.485 48.3873 125.72 49.5142 125.72 50.8182ZM124.271 50.8182C124.271 49.7476 124.092 48.8441 123.734 48.1076C123.38 47.3711 122.899 46.8137 122.291 46.4354C121.687 46.0571 121.011 45.8679 120.263 45.8679C119.514 45.8679 118.836 46.0571 118.228 46.4354C117.624 46.8137 117.144 47.3711 116.785 48.1076C116.431 48.8441 116.254 49.7476 116.254 50.8182C116.254 51.8887 116.431 52.7923 116.785 53.5288C117.144 54.2653 117.624 54.8227 118.228 55.201C118.836 55.5793 119.514 55.7685 120.263 55.7685C121.011 55.7685 121.687 55.5793 122.291 55.201C122.899 54.8227 123.38 54.2653 123.734 53.5288C124.092 52.7923 124.271 51.8887 124.271 50.8182ZM138.186 48.5H136.689C136.601 48.0694 136.446 47.6911 136.224 47.3651C136.007 47.0391 135.741 46.7654 135.427 46.544C135.117 46.3187 134.773 46.1496 134.395 46.0369C134.017 45.9242 133.622 45.8679 133.212 45.8679C132.463 45.8679 131.785 46.0571 131.177 46.4354C130.574 46.8137 130.093 47.3711 129.735 48.1076C129.38 48.8441 129.203 49.7476 129.203 50.8182C129.203 51.8887 129.38 52.7923 129.735 53.5288C130.093 54.2653 130.574 54.8227 131.177 55.201C131.785 55.5793 132.463 55.7685 133.212 55.7685C133.622 55.7685 134.017 55.7121 134.395 55.5994C134.773 55.4867 135.117 55.3197 135.427 55.0984C135.741 54.873 136.007 54.5973 136.224 54.2713C136.446 53.9413 136.601 53.563 136.689 53.1364H138.186C138.074 53.7682 137.868 54.3337 137.57 54.8327C137.273 55.3318 136.902 55.7564 136.46 56.1065C136.017 56.4527 135.52 56.7163 134.969 56.8974C134.421 57.0785 133.836 57.169 133.212 57.169C132.157 57.169 131.22 56.9115 130.399 56.3963C129.578 55.8812 128.932 55.1487 128.461 54.1989C127.99 53.2491 127.754 52.1222 127.754 50.8182C127.754 49.5142 127.99 48.3873 128.461 47.4375C128.932 46.4877 129.578 45.7552 130.399 45.2401C131.22 44.7249 132.157 44.4673 133.212 44.4673C133.836 44.4673 134.421 44.5579 134.969 44.739C135.52 44.9201 136.017 45.1857 136.46 45.5359C136.902 45.882 137.273 46.3046 137.57 46.8036C137.868 47.2987 138.074 47.8641 138.186 48.5ZM139.929 45.9645V44.6364H149.202V45.9645H145.314V57H143.817V45.9645H139.929ZM161.43 50.8182C161.43 52.1222 161.195 53.2491 160.724 54.1989C160.253 55.1487 159.607 55.8812 158.786 56.3963C157.965 56.9115 157.027 57.169 155.973 57.169C154.918 57.169 153.98 56.9115 153.159 56.3963C152.338 55.8812 151.692 55.1487 151.222 54.1989C150.751 53.2491 150.515 52.1222 150.515 50.8182C150.515 49.5142 150.751 48.3873 151.222 47.4375C151.692 46.4877 152.338 45.7552 153.159 45.2401C153.98 44.7249 154.918 44.4673 155.973 44.4673C157.027 44.4673 157.965 44.7249 158.786 45.2401C159.607 45.7552 160.253 46.4877 160.724 47.4375C161.195 48.3873 161.43 49.5142 161.43 50.8182ZM159.981 50.8182C159.981 49.7476 159.802 48.8441 159.444 48.1076C159.09 47.3711 158.609 46.8137 158.001 46.4354C157.397 46.0571 156.721 45.8679 155.973 45.8679C155.224 45.8679 154.546 46.0571 153.938 46.4354C153.334 46.8137 152.853 47.3711 152.495 48.1076C152.141 48.8441 151.964 49.7476 151.964 50.8182C151.964 51.8887 152.141 52.7923 152.495 53.5288C152.853 54.2653 153.334 54.8227 153.938 55.201C154.546 55.5793 155.224 55.7685 155.973 55.7685C156.721 55.7685 157.397 55.5793 158.001 55.201C158.609 54.8227 159.09 54.2653 159.444 53.5288C159.802 52.7923 159.981 51.8887 159.981 50.8182ZM163.947 57V44.6364H168.27C169.131 44.6364 169.841 44.7853 170.401 45.0831C170.96 45.3769 171.377 45.7733 171.65 46.2724C171.924 46.7674 172.061 47.3168 172.061 47.9205C172.061 48.4517 171.966 48.8904 171.777 49.2365C171.592 49.5826 171.347 49.8563 171.041 50.0575C170.739 50.2588 170.411 50.4077 170.057 50.5043V50.625C170.435 50.6491 170.815 50.782 171.198 51.0234C171.58 51.2649 171.9 51.611 172.158 52.0618C172.415 52.5125 172.544 53.0639 172.544 53.7159C172.544 54.3357 172.403 54.8931 172.121 55.3881C171.84 55.8832 171.395 56.2756 170.787 56.5653C170.179 56.8551 169.389 57 168.415 57H163.947ZM165.445 55.6719H168.415C169.393 55.6719 170.087 55.4827 170.497 55.1044C170.912 54.7221 171.119 54.2592 171.119 53.7159C171.119 53.2973 171.013 52.911 170.799 52.5568C170.586 52.1986 170.282 51.9129 169.888 51.6996C169.493 51.4822 169.026 51.3736 168.487 51.3736H165.445V55.6719ZM165.445 50.0696H168.222C168.672 50.0696 169.079 49.9811 169.441 49.804C169.807 49.6269 170.097 49.3774 170.31 49.0554C170.528 48.7334 170.636 48.3551 170.636 47.9205C170.636 47.3771 170.447 46.9163 170.069 46.538C169.69 46.1557 169.091 45.9645 168.27 45.9645H165.445V50.0696ZM184.953 48.5H183.456C183.367 48.0694 183.212 47.6911 182.991 47.3651C182.774 47.0391 182.508 46.7654 182.194 46.544C181.884 46.3187 181.54 46.1496 181.162 46.0369C180.783 45.9242 180.389 45.8679 179.978 45.8679C179.23 45.8679 178.552 46.0571 177.944 46.4354C177.34 46.8137 176.859 47.3711 176.501 48.1076C176.147 48.8441 175.97 49.7476 175.97 50.8182C175.97 51.8887 176.147 52.7923 176.501 53.5288C176.859 54.2653 177.34 54.8227 177.944 55.201C178.552 55.5793 179.23 55.7685 179.978 55.7685C180.389 55.7685 180.783 55.7121 181.162 55.5994C181.54 55.4867 181.884 55.3197 182.194 55.0984C182.508 54.873 182.774 54.5973 182.991 54.2713C183.212 53.9413 183.367 53.563 183.456 53.1364H184.953C184.84 53.7682 184.635 54.3337 184.337 54.8327C184.039 55.3318 183.669 55.7564 183.226 56.1065C182.784 56.4527 182.287 56.7163 181.735 56.8974C181.188 57.0785 180.602 57.169 179.978 57.169C178.924 57.169 177.986 56.9115 177.165 56.3963C176.344 55.8812 175.698 55.1487 175.227 54.1989C174.756 53.2491 174.521 52.1222 174.521 50.8182C174.521 49.5142 174.756 48.3873 175.227 47.4375C175.698 46.4877 176.344 45.7552 177.165 45.2401C177.986 44.7249 178.924 44.4673 179.978 44.4673C180.602 44.4673 181.188 44.5579 181.735 44.739C182.287 44.9201 182.784 45.1857 183.226 45.5359C183.669 45.882 184.039 46.3046 184.337 46.8036C184.635 47.2987 184.84 47.8641 184.953 48.5ZM194.641 57L190.391 51.3253H188.869V57H187.372V44.6364H188.869V49.9972H189.521L194.472 44.6364H196.259L191.26 50.0696L196.428 57H194.641ZM208.213 50.8182C208.213 52.1222 207.978 53.2491 207.507 54.1989C207.036 55.1487 206.39 55.8812 205.569 56.3963C204.748 56.9115 203.81 57.169 202.756 57.169C201.701 57.169 200.764 56.9115 199.943 56.3963C199.122 55.8812 198.476 55.1487 198.005 54.1989C197.534 53.2491 197.298 52.1222 197.298 50.8182C197.298 49.5142 197.534 48.3873 198.005 47.4375C198.476 46.4877 199.122 45.7552 199.943 45.2401C200.764 44.7249 201.701 44.4673 202.756 44.4673C203.81 44.4673 204.748 44.7249 205.569 45.2401C206.39 45.7552 207.036 46.4877 207.507 47.4375C207.978 48.3873 208.213 49.5142 208.213 50.8182ZM206.764 50.8182C206.764 49.7476 206.585 48.8441 206.227 48.1076C205.873 47.3711 205.392 46.8137 204.784 46.4354C204.18 46.0571 203.504 45.8679 202.756 45.8679C202.007 45.8679 201.329 46.0571 200.721 46.4354C200.118 46.8137 199.637 47.3711 199.278 48.1076C198.924 48.8441 198.747 49.7476 198.747 50.8182C198.747 51.8887 198.924 52.7923 199.278 53.5288C199.637 54.2653 200.118 54.8227 200.721 55.201C201.329 55.5793 202.007 55.7685 202.756 55.7685C203.504 55.7685 204.18 55.5793 204.784 55.201C205.392 54.8227 205.873 54.2653 206.227 53.5288C206.585 52.7923 206.764 51.8887 206.764 50.8182ZM210.731 44.6364H212.204V54.3679H212.324L219.086 44.6364H220.535V57H219.037V47.2926H218.917L212.179 57H210.731V44.6364ZM216.816 41.5455H218.144C218.144 42.1974 217.919 42.7307 217.468 43.1452C217.017 43.5598 216.405 43.767 215.633 43.767C214.872 43.767 214.266 43.5598 213.815 43.1452C213.369 42.7307 213.145 42.1974 213.145 41.5455H214.473C214.473 41.8594 214.56 42.1351 214.733 42.3725C214.91 42.61 215.21 42.7287 215.633 42.7287C216.055 42.7287 216.357 42.61 216.538 42.3725C216.723 42.1351 216.816 41.8594 216.816 41.5455ZM238.743 50.8182C238.743 52.1222 238.508 53.2491 238.037 54.1989C237.566 55.1487 236.92 55.8812 236.099 56.3963C235.278 56.9115 234.34 57.169 233.286 57.169C232.232 57.169 231.294 56.9115 230.473 56.3963C229.652 55.8812 229.006 55.1487 228.535 54.1989C228.064 53.2491 227.829 52.1222 227.829 50.8182C227.829 49.5142 228.064 48.3873 228.535 47.4375C229.006 46.4877 229.652 45.7552 230.473 45.2401C231.294 44.7249 232.232 44.4673 233.286 44.4673C234.34 44.4673 235.278 44.7249 236.099 45.2401C236.92 45.7552 237.566 46.4877 238.037 47.4375C238.508 48.3873 238.743 49.5142 238.743 50.8182ZM237.295 50.8182C237.295 49.7476 237.115 48.8441 236.757 48.1076C236.403 47.3711 235.922 46.8137 235.314 46.4354C234.711 46.0571 234.035 45.8679 233.286 45.8679C232.537 45.8679 231.859 46.0571 231.252 46.4354C230.648 46.8137 230.167 47.3711 229.809 48.1076C229.455 48.8441 229.278 49.7476 229.278 50.8182C229.278 51.8887 229.455 52.7923 229.809 53.5288C230.167 54.2653 230.648 54.8227 231.252 55.201C231.859 55.5793 232.537 55.7685 233.286 55.7685C234.035 55.7685 234.711 55.5793 235.314 55.201C235.922 54.8227 236.403 54.2653 236.757 53.5288C237.115 52.7923 237.295 51.8887 237.295 50.8182ZM241.261 57V44.6364H248.722V45.9645H242.758V49.8281H245.897C246.783 49.8281 247.529 49.973 248.137 50.2628C248.749 50.5526 249.211 50.9611 249.525 51.4883C249.843 52.0155 250.002 52.6373 250.002 53.3537C250.002 54.0701 249.843 54.7019 249.525 55.2493C249.211 55.7966 248.749 56.2253 248.137 56.5352C247.529 56.8451 246.783 57 245.897 57H241.261ZM242.758 55.696H245.897C246.461 55.696 246.938 55.5833 247.328 55.358C247.722 55.1286 248.02 54.8348 248.221 54.4766C248.427 54.1143 248.529 53.732 248.529 53.3295C248.529 52.7379 248.302 52.2288 247.847 51.8022C247.392 51.3716 246.742 51.1562 245.897 51.1562H242.758V55.696ZM251.404 57V55.6236H251.767C252.282 55.6236 252.682 55.4586 252.968 55.1286C253.254 54.7985 253.459 54.2653 253.584 53.5288C253.713 52.7923 253.799 51.8163 253.843 50.6009L254.061 44.6364H261.595V57H260.098V45.9645H255.485L255.292 50.8906C255.244 52.1866 255.125 53.2893 254.936 54.1989C254.747 55.1084 254.415 55.8027 253.94 56.2816C253.465 56.7605 252.773 57 251.863 57H251.404ZM265.093 57H263.524L268.063 44.6364H269.609L274.149 57H272.579L268.884 46.5923H268.788L265.093 57ZM265.673 52.1705H271.999V53.4986H265.673V52.1705ZM285.442 48.5H283.945C283.856 48.0694 283.701 47.6911 283.48 47.3651C283.263 47.0391 282.997 46.7654 282.683 46.544C282.373 46.3187 282.029 46.1496 281.651 46.0369C281.273 45.9242 280.878 45.8679 280.468 45.8679C279.719 45.8679 279.041 46.0571 278.433 46.4354C277.83 46.8137 277.349 47.3711 276.99 48.1076C276.636 48.8441 276.459 49.7476 276.459 50.8182C276.459 51.8887 276.636 52.7923 276.99 53.5288C277.349 54.2653 277.83 54.8227 278.433 55.201C279.041 55.5793 279.719 55.7685 280.468 55.7685C280.878 55.7685 281.273 55.7121 281.651 55.5994C282.029 55.4867 282.373 55.3197 282.683 55.0984C282.997 54.873 283.263 54.5973 283.48 54.2713C283.701 53.9413 283.856 53.563 283.945 53.1364H285.442C285.329 53.7682 285.124 54.3337 284.826 54.8327C284.529 55.3318 284.158 55.7564 283.716 56.1065C283.273 56.4527 282.776 56.7163 282.224 56.8974C281.677 57.0785 281.092 57.169 280.468 57.169C279.413 57.169 278.475 56.9115 277.654 56.3963C276.833 55.8812 276.188 55.1487 275.717 54.1989C275.246 53.2491 275.01 52.1222 275.01 50.8182C275.01 49.5142 275.246 48.3873 275.717 47.4375C276.188 46.4877 276.833 45.7552 277.654 45.2401C278.475 44.7249 279.413 44.4673 280.468 44.4673C281.092 44.4673 281.677 44.5579 282.224 44.739C282.776 44.9201 283.273 45.1857 283.716 45.5359C284.158 45.882 284.529 46.3046 284.826 46.8036C285.124 47.2987 285.329 47.8641 285.442 48.5ZM287.185 45.9645V44.6364H296.458V45.9645H292.57V57H291.073V45.9645H287.185ZM298.769 44.6364H300.242V54.3679H300.362L307.124 44.6364H308.573V57H307.075V47.2926H306.955L300.218 57H298.769V44.6364Z" fill="#8E7B5B"/>
</svg>
